<svg width="159" height="71" viewBox="0 0 159 71" fill="none" xmlns="http://www.w3.org/2000/svg">
<g clip-path="url(#clip0_3590_39289)">
<path d="M68.0028 60.0131L65.5528 60.7032C65.4954 60.3236 65.3055 59.9728 64.9835 59.6508C64.6615 59.3288 64.1726 59.1678 63.5169 59.1678C63.0223 59.1678 62.6197 59.3 62.3092 59.5645C61.9986 59.8176 61.8434 60.1224 61.8434 60.4789C61.8434 61.1114 62.2459 61.5025 63.0511 61.652L64.6902 61.9626C65.8174 62.1696 66.6859 62.6124 67.2955 63.2909C67.9166 63.958 68.2272 64.7402 68.2272 65.6372C68.2272 66.6608 67.8188 67.5636 67.0022 68.3457C66.1855 69.1163 65.087 69.5016 63.7068 69.5016C62.1654 69.5016 60.9691 69.1048 60.118 68.3112C59.2783 67.5061 58.8067 66.5975 58.7031 65.5855L61.2049 64.9816C61.2624 65.5912 61.4982 66.0972 61.9123 66.4998C62.3379 66.8908 62.9476 67.0863 63.7412 67.0863C64.2704 67.0863 64.6902 66.9714 65.0007 66.7413C65.3114 66.4998 65.4666 66.1893 65.4666 65.8097C65.4666 65.4992 65.3516 65.2404 65.1215 65.0334C64.8914 64.8149 64.5694 64.6654 64.1553 64.5848L62.4817 64.2744C61.4465 64.0788 60.6298 63.6589 60.0317 63.0149C59.4451 62.3708 59.1518 61.5945 59.1518 60.686C59.1518 59.5588 59.5831 58.6214 60.4457 57.8739C61.3085 57.1263 62.3379 56.7524 63.5342 56.7524C64.2589 56.7524 64.9029 56.856 65.4666 57.0631C66.0417 57.2586 66.496 57.523 66.8297 57.8567C67.1632 58.1902 67.422 58.5352 67.6061 58.8917C67.8016 59.2482 67.9339 59.6221 68.0028 60.0131ZM77.8613 69.2428H70.0971V57.0113H77.844V59.5817H72.8232V61.9108H77.3782V64.3088H72.8232V66.6551H77.8613V69.2428ZM85.7812 69.5016C83.9869 69.5016 82.48 68.915 81.2607 67.742C80.0415 66.5573 79.4319 65.0276 79.4319 63.1529C79.4319 61.2897 80.0472 59.7601 81.278 58.5639C82.5087 57.3563 83.9984 56.7524 85.7467 56.7524C86.6209 56.7524 87.4088 56.8847 88.1104 57.1493C88.8237 57.4023 89.3988 57.7416 89.8358 58.1672C90.2729 58.5927 90.6238 59.0297 90.8883 59.4783C91.1529 59.9269 91.3369 60.3927 91.4404 60.8757L88.8696 61.6865C88.8122 61.4451 88.7201 61.2092 88.5936 60.9793C88.4671 60.7377 88.2888 60.4961 88.0587 60.2546C87.8286 60.0016 87.5124 59.8003 87.1098 59.6508C86.7072 59.4898 86.2528 59.4092 85.7467 59.4092C84.8265 59.4092 84.0156 59.7371 83.3139 60.3927C82.6123 61.0367 82.2615 61.9568 82.2615 63.1529C82.2615 64.257 82.6065 65.1369 83.2966 65.7925C83.9869 66.448 84.815 66.7758 85.7812 66.7758C86.7244 66.7758 87.4548 66.5401 87.9724 66.0685C88.49 65.597 88.8294 65.0678 88.9904 64.4813L91.5957 65.2232C91.4807 65.6948 91.2909 66.1606 91.0264 66.6205C90.7733 67.0806 90.4224 67.5349 89.9739 67.9834C89.5368 68.432 88.9501 68.8 88.214 69.0876C87.4894 69.3636 86.6785 69.5016 85.7812 69.5016ZM101.528 68.294C100.62 69.1105 99.4635 69.5189 98.0603 69.5189C96.6569 69.5189 95.4951 69.1105 94.575 68.294C93.6663 67.4659 93.2119 66.31 93.2119 64.8264V57.0113H95.938V64.6021C95.938 65.3266 96.122 65.8788 96.4901 66.2583C96.8697 66.6379 97.393 66.8276 98.0603 66.8276C98.7273 66.8276 99.2449 66.6379 99.613 66.2583C99.9926 65.8788 100.182 65.3266 100.182 64.6021V57.0113H102.908V64.8264C102.908 66.31 102.448 67.4659 101.528 68.294ZM111.347 69.2428L109.156 64.6883H108.19V69.2428H105.464V57.0113H110.312C111.497 57.0113 112.452 57.3735 113.176 58.0981C113.913 58.8227 114.281 59.737 114.281 60.8412C114.281 61.6693 114.068 62.3882 113.642 62.9976C113.217 63.5957 112.624 64.027 111.865 64.2916L114.35 69.2428H111.347ZM108.19 62.3421H109.795C110.347 62.3421 110.772 62.2098 111.071 61.9453C111.37 61.6693 111.52 61.3069 111.52 60.8585C111.52 60.3984 111.37 60.0362 111.071 59.7716C110.772 59.507 110.347 59.3748 109.795 59.3748H108.19V62.3421ZM119.059 69.2428H116.298V57.0113H119.059V69.2428ZM130.971 59.6163H127.193V69.2428H124.466V59.6163H120.706V57.0113H130.971V59.6163ZM136.05 64.1363L131.805 57.0113H134.997L137.5 61.5485L140.035 57.0113H143.072L138.776 64.1363V69.2428H136.05V64.1363Z" fill="white"/>
<path d="M0 65.4098C3.21873 62.3307 7.46093 60.6177 11.8677 60.6177H52.8764C52.8764 63.2643 50.779 65.4098 48.1918 65.4098H0Z" fill="url(#paint0_linear_3590_39289)"/>
<mask id="mask0_3590_39289" style="mask-type:luminance" maskUnits="userSpaceOnUse" x="0" y="0" width="159" height="51">
<path d="M159 0.200684H0V50.0312H159V0.200684Z" fill="white"/>
</mask>
<g mask="url(#mask0_3590_39289)">
<path d="M36.6745 11.2728C39.7161 11.2728 42.1616 8.81058 42.1616 5.74842C42.1616 2.68625 39.7161 0.200684 36.6745 0.200684C33.6331 0.200684 31.1875 2.66288 31.1875 5.72505C31.1875 8.7872 33.6331 11.2728 36.6745 11.2728Z" fill="#EF7D22"/>
<path d="M129.613 15.3212C116.944 10.6072 101.45 8.41748 80.8643 8.41748C69.155 8.41748 58.1345 9.77114 48.1278 12.4306C39.1659 14.8115 30.9392 18.2673 23.6645 22.6866C11.7153 29.9565 4.61856 38.397 0.547793 44.8866C-0.597595 46.71 0.122142 49.1547 2.06465 49.9987C5.43891 43.732 12.3345 34.2006 25.638 26.1105C32.5954 21.8745 40.4893 18.5699 49.103 16.2766C58.8001 13.6967 69.4878 12.3909 80.872 12.3909C120.721 12.3909 138.923 21.0384 153.55 35.1961C155.09 36.685 157.504 36.6452 159.007 35.1163C149.827 25.5692 140.766 19.4617 129.62 15.3212H129.613Z" fill="url(#paint1_linear_3590_39289)"/>
<path d="M18.8043 26.1349C16.8076 20.9352 13.2322 16.715 8.34101 13.7608C6.43719 12.6142 3.99164 13.4424 3.10938 15.5207C8.9524 17.997 13.1315 22.1695 15.2134 27.5921C17.1636 32.6803 17.2565 38.6681 15.5771 44.8711C15.0121 46.9573 16.0415 49.1551 17.9762 49.9991C21.1801 41.5586 21.4975 33.1579 18.8043 26.1349Z" fill="#EF7D22"/>
<path d="M40.8313 15.6558H32.5195V49.9988H40.8313V15.6558Z" fill="white"/>
<path d="M84.1544 15.7354V41.8371H83.8526C83.0091 41.8371 82.1655 41.5584 81.3529 41.0806C80.5094 40.579 79.8283 39.9897 79.2634 39.3209L63.2124 20.29C61.8271 18.6656 60.3335 17.5269 58.8398 16.7705C57.3152 16.0459 55.4192 15.6558 53.2212 15.6558H44.832V50.0306H52.8962V23.8414H53.198C54.0416 23.8414 54.9084 24.0962 55.7209 24.5659C56.5336 25.0677 57.2455 25.6569 57.8105 26.3576L73.4822 45.1654C74.8365 46.8695 76.3302 48.0957 77.94 48.8521C79.5187 49.6086 81.5232 49.9988 83.8061 49.9988H92.2264L92.2805 15.6558H84.1622V15.7433L84.1544 15.7354Z" fill="white"/>
<path d="M106.373 41.8689C105.181 41.8689 104.608 41.3354 104.608 40.2763V36.8365H142.716V28.7066H104.608V25.3224C104.608 24.2872 105.204 23.7856 106.373 23.7856H143.102V15.6558H106.373C99.6941 15.6558 96.2656 18.4745 96.2656 24.0643V41.5265C96.2656 47.1402 99.6863 49.9909 106.373 49.9909H143.095V41.8609H106.373V41.8689Z" fill="white"/>
</g>
</g>
<defs>
<linearGradient id="paint0_linear_3590_39289" x1="1.33573" y1="62.1815" x2="45.3176" y2="81.0786" gradientUnits="userSpaceOnUse">
<stop stop-color="#EE3B00" stop-opacity="0"/>
<stop offset="1" stop-color="#EF7D22"/>
</linearGradient>
<linearGradient id="paint1_linear_3590_39289" x1="4.0167" y1="21.9869" x2="157.293" y2="44.8108" gradientUnits="userSpaceOnUse">
<stop stop-color="#EF7D22"/>
<stop offset="0.23" stop-color="#EF741D"/>
<stop offset="0.62" stop-color="#EE5A10"/>
<stop offset="1" stop-color="#EE3B00"/>
</linearGradient>
<clipPath id="clip0_3590_39289">
<rect width="159" height="70" fill="white" transform="translate(0 0.200684)"/>
</clipPath>
</defs>
</svg>
